<?xml version="1.0" encoding="UTF-8" standalone="no"?>
<svg
   viewBox="0 0 450 500"
   version="1.1"
   id="svg4"
   sodipodi:docname="play-icon.svg"
   inkscape:version="1.2.2 (732a01da63, 2022-12-09)"
   width="450"
   height="500"
   xmlns:inkscape="http://www.inkscape.org/namespaces/inkscape"
   xmlns:sodipodi="http://sodipodi.sourceforge.net/DTD/sodipodi-0.dtd"
   xmlns="http://www.w3.org/2000/svg"
   xmlns:svg="http://www.w3.org/2000/svg">
  <defs
     id="defs8" />
  <sodipodi:namedview
     id="namedview6"
     pagecolor="#ffffff"
     bordercolor="#000000"
     borderopacity="0.25"
     inkscape:showpageshadow="2"
     inkscape:pageopacity="0.0"
     inkscape:pagecheckerboard="0"
     inkscape:deskcolor="#d1d1d1"
     showgrid="false"
     inkscape:zoom="1.1449053"
     inkscape:cx="162.89557"
     inkscape:cy="255.91636"
     inkscape:window-width="1920"
     inkscape:window-height="1009"
     inkscape:window-x="1912"
     inkscape:window-y="-8"
     inkscape:window-maximized="1"
     inkscape:current-layer="svg4" />
  <!-- Font Awesome Pro 6.0.0-alpha2 by @fontawesome - https://fontawesome.com License - https://fontawesome.com/license (Commercial License) -->
  <path
     d="M 423.08321,204.28297 85.583221,7.8473781 C 76.599611,2.6239777 66.441791,0 56.264061,0 23.901564,0 0,25.227463 0,53.555483 V 446.42665 C 0,475.00692 24.158203,500 56.249991,500 c 10.18125,0 20.34259,-2.63291 29.33323,-7.86524 L 423.08321,295.69918 C 439.80115,285.9678 450,268.65134 450,249.99107 c 0,-18.66026 -10.19885,-35.97673 -26.91679,-45.7081 z m -9.77698,76.17906 -337.498789,196.43335 c -5.89804,3.43316 -12.65862,5.24684 -19.55745,5.24684 -20.677724,0 -37.499988,-16.02177 -37.499988,-35.71557 V 53.555483 c 0,-17.16914 14.341406,-35.697702 37.514058,-35.697702 6.90236,0 13.66407,1.809216 19.54221,5.226748 L 413.30623,219.52012 c 11.06836,6.44219 17.94375,18.11783 17.94375,30.47095 0,12.35089 -6.87539,24.02653 -17.94375,30.47096 z"
     id="path2"
     style="stroke-width:1.14367" />
</svg>
