<?xml version="1.0" encoding="UTF-8" standalone="no"?>
<svg
   viewBox="0 0 640 512"
   version="1.1"
   id="svg20"
   sodipodi:docname="volume-mid-icon.svg"
   inkscape:version="1.2.2 (732a01da63, 2022-12-09)"
   xmlns:inkscape="http://www.inkscape.org/namespaces/inkscape"
   xmlns:sodipodi="http://sodipodi.sourceforge.net/DTD/sodipodi-0.dtd"
   xmlns="http://www.w3.org/2000/svg"
   xmlns:svg="http://www.w3.org/2000/svg">
  <defs
     id="defs24" />
  <sodipodi:namedview
     id="namedview22"
     pagecolor="#ffffff"
     bordercolor="#000000"
     borderopacity="0.25"
     inkscape:showpageshadow="2"
     inkscape:pageopacity="0.0"
     inkscape:pagecheckerboard="0"
     inkscape:deskcolor="#d1d1d1"
     showgrid="false"
     inkscape:zoom="1.1449053"
     inkscape:cx="388.67843"
     inkscape:cy="224.47271"
     inkscape:window-width="1920"
     inkscape:window-height="1009"
     inkscape:window-x="1912"
     inkscape:window-y="-8"
     inkscape:window-maximized="1"
     inkscape:current-layer="svg20" />
  <!-- Font Awesome Pro 6.0.0-alpha2 by @fontawesome - https://fontawesome.com License - https://fontawesome.com/license (Commercial License) -->
  <path
     id="path18"
     d="m 287.98438,32 c -7.496,0 -14.8989,2.630901 -20.79688,7.712891 L 164.20312,159.99609 H 32 c -17.671964,0 -32,14.32604 -32,32 v 128.00196 c 0,17.67196 14.328036,32 32,32 H 164.20312 L 267.1875,472.28125 C 273.09348,477.37523 280.50002,480 288,480 c 4.531,0 9.094,-0.9685 13.375,-2.9375 C 312.71898,471.84452 320,460.49998 320,448 V 63.994141 C 320,51.493165 312.71898,40.149629 301.375,34.931641 297.086,32.962645 292.52036,32 287.98438,32 Z m 0,16 c 2.32498,0 4.58512,0.495799 6.70312,1.466797 C 300.34348,52.068791 304,57.771153 304,63.994141 V 448 c 0,6.22198 -3.65561,11.92439 -9.30859,14.52539 C 292.56241,463.50439 290.312,464 288,464 c -3.477,0 -6.84403,-1.13303 -9.58203,-3.20703 L 176.35547,341.5918 171.56641,335.99805 H 164.20312 32 c -8.823982,0 -16,-7.17802 -16,-16 V 191.99609 c 0,-8.82198 7.176018,-16 16,-16 h 132.20312 7.36329 l 4.78906,-5.59375 L 278.41406,51.203125 C 281.15606,49.131129 284.51638,48 287.98438,48 Z m 185.16015,70.60156 c -2.043,0.19925 -4.01978,1.17408 -5.42578,2.89258 -2.813,3.407 -2.313,8.438 1.125,11.25 C 506.43767,163.55708 528,208.49519 528,255.99609 c 0,47.50092 -21.56233,92.43902 -59.15625,123.25196 -3.438,2.81198 -3.938,7.844 -1.125,11.25 1.594,1.93698 3.8755,2.9375 6.1875,2.9375 1.782,0 3.5935,-0.5935 5.0625,-1.8125 C 520.31167,357.74711 544,308.30899 544,255.99609 c 0,-52.31288 -23.68833,-101.75101 -65.03125,-135.62695 -1.672,-1.3905 -3.78122,-1.96683 -5.82422,-1.76758 z m -60.58984,73.96875 c -2.039,0.19913 -3.99219,1.17555 -5.36719,2.89453 -2.813,3.406 -2.312,8.46902 1.125,11.25 15.06296,12.31298 23.6875,30.28129 23.6875,49.28125 0,18.99996 -8.62454,36.97023 -23.6875,49.28321 -3.437,2.78098 -3.938,7.844 -1.125,11.25 1.562,1.93798 3.8755,2.9375 6.1875,2.9375 1.781,0 3.5935,-0.5935 5.0625,-1.8125 C 437.21846,302.31032 448,279.80905 448,255.99609 c 0,-23.81294 -10.78154,-46.31227 -29.5625,-61.65625 -1.719,-1.39048 -3.84381,-1.96865 -5.88281,-1.76953 z" />
</svg>
